<svg width="44" height="44" viewBox="0 0 44 44" fill="none" xmlns="http://www.w3.org/2000/svg">
<path d="M44 22C44 9.84974 34.1503 0 22 0C9.84974 0 0 9.84974 0 22C0 34.1503 9.84974 44 22 44C34.1503 44 44 34.1503 44 22Z" fill="white"/>
<path d="M43.5 22C43.5 10.1259 33.8741 0.5 22 0.5C10.1259 0.5 0.5 10.1259 0.5 22C0.5 33.8741 10.1259 43.5 22 43.5C33.8741 43.5 43.5 33.8741 43.5 22Z" stroke="#E5E7EB"/>
<g filter="url(#filter0_d_1394_5613)">
<path d="M25.8677 22.408L20.1016 28.1741C20.048 28.2277 19.9844 28.2702 19.9144 28.2992C19.8444 28.3282 19.7694 28.3431 19.6936 28.3431C19.6179 28.3431 19.5428 28.3282 19.4728 28.2992C19.4029 28.2702 19.3393 28.2277 19.2857 28.1741C19.2321 28.1206 19.1896 28.057 19.1606 27.987C19.1316 27.917 19.1167 27.8419 19.1167 27.7662C19.1167 27.6904 19.1316 27.6154 19.1606 27.5454C19.1896 27.4754 19.2321 27.4118 19.2857 27.3582L24.6446 22L19.2857 16.6419C19.1775 16.5337 19.1167 16.3869 19.1167 16.2339C19.1167 16.0809 19.1775 15.9342 19.2857 15.826C19.3939 15.7178 19.5406 15.657 19.6936 15.657C19.8466 15.657 19.9934 15.7178 20.1016 15.826L25.8677 21.5921C25.9213 21.6456 25.9639 21.7092 25.9929 21.7792C26.0219 21.8492 26.0368 21.9243 26.0368 22C26.0368 22.0758 26.0219 22.1509 25.9929 22.2209C25.9639 22.2909 25.9213 22.3544 25.8677 22.408Z" fill="#737373"/>
</g>
<defs>
<filter id="filter0_d_1394_5613" x="17.6973" y="14.9473" width="9.75863" height="15.5247" filterUnits="userSpaceOnUse" color-interpolation-filters="sRGB">
<feFlood flood-opacity="0" result="BackgroundImageFix"/>
<feColorMatrix in="SourceAlpha" type="matrix" values="0 0 0 0 0 0 0 0 0 0 0 0 0 0 0 0 0 0 127 0" result="hardAlpha"/>
<feOffset dy="0.709677"/>
<feGaussianBlur stdDeviation="0.709677"/>
<feComposite in2="hardAlpha" operator="out"/>
<feColorMatrix type="matrix" values="0 0 0 0 0 0 0 0 0 0 0 0 0 0 0 0 0 0 0.05 0"/>
<feBlend mode="normal" in2="BackgroundImageFix" result="effect1_dropShadow_1394_5613"/>
<feBlend mode="normal" in="SourceGraphic" in2="effect1_dropShadow_1394_5613" result="shape"/>
</filter>
</defs>
</svg>
